<svg width="16" height="16" viewBox="0 0 16 16" fill="none" xmlns="http://www.w3.org/2000/svg">
<rect width="16" height="16" rx="8" fill="#0369A1"/>
<path d="M4 6C4 5.73478 4.10536 5.48043 4.29289 5.29289C4.48043 5.10536 4.73478 5 5 5H8C8.26522 5 8.51957 5.10536 8.70711 5.29289C8.89464 5.48043 9 5.73478 9 6V10C9 10.2652 8.89464 10.5196 8.70711 10.7071C8.51957 10.8946 8.26522 11 8 11H5C4.73478 11 4.48043 10.8946 4.29289 10.7071C4.10536 10.5196 4 10.2652 4 10V6ZM10.2765 6.553C10.1935 6.5945 10.1236 6.65829 10.0748 6.73724C10.0259 6.81618 10 6.90717 10 7V9C10 9.09283 10.0259 9.18382 10.0748 9.26276C10.1236 9.34171 10.1935 9.4055 10.2765 9.447L11.2765 9.947C11.3527 9.98508 11.4374 10.0031 11.5225 9.99923C11.6076 9.99539 11.6903 9.96988 11.7628 9.9251C11.8353 9.88032 11.8951 9.81776 11.9366 9.74336C11.9781 9.66897 12 9.5852 12 9.5V6.5C12 6.4148 11.9781 6.33103 11.9366 6.25664C11.8951 6.18224 11.8353 6.11968 11.7628 6.0749C11.6903 6.03012 11.6076 6.00461 11.5225 6.00077C11.4374 5.99694 11.3527 6.01492 11.2765 6.053L10.2765 6.553Z" fill="#E0F2FE"/>
</svg>
